<?xml version="1.0" encoding="UTF-8" standalone="no"?>
<!-- Created with Inkscape (http://www.inkscape.org/) -->

<svg
   width="141.50105mm"
   height="16.260811mm"
   viewBox="0 0 141.50105 16.260811"
   version="1.1"
   id="svg5"
   xml:space="preserve"
   inkscape:version="1.2.2 (b0a8486541, 2022-12-01)"
   sodipodi:docname="freecodecamp.svg"
   inkscape:export-filename="freecodecamp.png"
   inkscape:export-xdpi="150"
   inkscape:export-ydpi="150"
   xmlns:inkscape="http://www.inkscape.org/namespaces/inkscape"
   xmlns:sodipodi="http://sodipodi.sourceforge.net/DTD/sodipodi-0.dtd"
   xmlns="http://www.w3.org/2000/svg"
   xmlns:svg="http://www.w3.org/2000/svg"><sodipodi:namedview
     id="namedview7"
     pagecolor="#505050"
     bordercolor="#eeeeee"
     borderopacity="1"
     inkscape:showpageshadow="0"
     inkscape:pageopacity="0"
     inkscape:pagecheckerboard="0"
     inkscape:deskcolor="#505050"
     inkscape:document-units="mm"
     showgrid="false"
     inkscape:zoom="1.4236377"
     inkscape:cx="78.320488"
     inkscape:cy="24.233694"
     inkscape:window-width="1366"
     inkscape:window-height="740"
     inkscape:window-x="0"
     inkscape:window-y="761"
     inkscape:window-maximized="1"
     inkscape:current-layer="layer1" /><defs
     id="defs2" /><g
     inkscape:label="Capa 1"
     inkscape:groupmode="layer"
     id="layer1"
     transform="translate(-33.768053,-80.349616)"><path
       style="fill:#1b1b32;stroke-width:0.177062;fill-opacity:1"
       d="m 140.56275,96.493553 c -0.17463,-0.11085 -0.21347,-1.47855 -0.17706,-6.23637 0.0428,-5.59316 0.0716,-6.09917 0.35016,-6.15278 0.20448,-0.0393 0.34162,0.0933 0.42024,0.40658 0.0854,0.34018 0.19399,0.4335 0.40472,0.3477 1.62082,-0.65997 2.30624,-0.81112 3.33422,-0.73525 1.29189,0.0954 2.11638,0.52124 2.59476,1.34034 0.3958,0.67771 0.59526,3.22316 0.38465,4.90883 -0.10841,0.86768 -0.2337,1.13782 -0.78197,1.68609 -1.11896,1.11897 -3.08804,1.32497 -4.9198,0.51469 l -0.76651,-0.33906 v 1.86084 c 0,2.20375 -0.20987,2.80055 -0.84341,2.39839 z m 4.72404,-4.62904 c 0.33146,-0.0951 0.78908,-0.34798 1.01694,-0.56205 0.3939,-0.37005 0.41431,-0.50468 0.41431,-2.73297 v -2.34374 l -0.52382,-0.44077 c -1.08086,-0.90947 -3.2937,-0.76735 -4.38967,0.28194 l -0.57545,0.55095 v 2.08593 c 0,2.05551 0.007,2.09038 0.46426,2.39014 0.55947,0.36657 2.14202,0.92959 2.6355,0.93762 0.19542,0.003 0.62648,-0.072 0.95793,-0.16705 z m 9.47862,3.30127 c -2.79481,-2.88548 -3.53476,-7.85787 -1.71163,-11.50208 0.73534,-1.46986 2.47212,-3.38128 2.98295,-3.2829 0.58363,0.1124 0.45007,0.58891 -0.45495,1.62314 -1.71605,1.96101 -2.31242,3.52119 -2.31242,6.04949 0,2.477 0.67631,4.31553 2.30929,6.27775 0.91199,1.09587 1.05336,1.63437 0.45915,1.7488 -0.21213,0.0408 -0.65679,-0.27862 -1.27239,-0.9142 z m 16.24563,0.73153 c -0.32294,-0.32294 -0.28548,-0.40058 0.75673,-1.5686 1.16639,-1.3072 1.7763,-2.49828 2.12694,-4.15362 0.68871,-3.25133 -0.0816,-6.0547 -2.32172,-8.44959 -0.65709,-0.70248 -0.76504,-0.90667 -0.59051,-1.11696 0.11746,-0.14153 0.31721,-0.25733 0.4439,-0.25733 0.68068,0 2.61005,2.40435 3.26719,4.07152 0.76848,1.94963 0.76728,5.20492 -0.003,7.40424 -0.59483,1.699 -2.556,4.28281 -3.25075,4.28281 -0.11913,0 -0.31221,-0.0956 -0.42907,-0.21247 z m -4.71482,-2.00845 c 0.72545,-1.43297 0.56595,-2.02858 -0.54327,-2.02858 -0.48366,0 -0.9096,-0.12285 -1.17623,-0.33925 -0.39273,-0.31873 -0.4148,-0.438 -0.36497,-1.9718 0.0526,-1.61805 -0.0596,-2.64732 -0.28844,-2.64604 -0.15327,6.7e-4 -1.51429,2.22265 -2.30718,3.76635 -0.67176,1.30789 -0.91919,2.81396 -0.5696,3.46716 0.28562,0.5337 0.12167,0.4726 -0.52575,-0.19594 -0.7974,-0.82342 -1.28188,-1.98883 -1.28188,-3.08357 0,-1.16256 0.2122,-1.68699 1.5225,-3.7627 1.28934,-2.04251 1.79818,-3.16844 2.08058,-4.60383 l 0.21682,-1.10207 0.86773,0.85355 c 1.5127,1.48795 2.18855,3.51975 1.77141,5.32541 -0.0958,0.41445 -0.10996,0.79318 -0.0316,0.84162 0.25236,0.15597 0.6523,-0.0978 0.85493,-0.54254 0.10848,-0.23811 0.28282,-0.43292 0.3874,-0.43292 0.1046,0 0.43543,0.52411 0.73519,1.16468 0.48158,1.02913 0.53446,1.29622 0.45431,2.29477 -0.10208,1.2717 -0.60047,2.27697 -1.60983,3.24704 l -0.62203,0.59782 z M 35.960916,92.878393 c -0.04502,-0.12173 -0.102276,-1.85473 -0.12724,-3.85112 l -0.04539,-3.62977 -0.972309,-0.0885 c -0.770714,-0.0702 -0.985418,-0.15755 -1.035532,-0.42144 -0.08471,-0.44606 0.260638,-0.63496 1.166794,-0.63823 l 0.752516,-0.003 v -0.99135 c 0,-1.35714 0.409608,-2.15748 1.314537,-2.56848 1.98358,-0.9009 4.455058,0.11226 4.316427,1.76949 -0.07466,0.89247 -0.63261,0.88009 -1.115523,-0.0248 -0.453415,-0.84957 -1.243675,-1.15239 -2.233442,-0.85585 -0.831919,0.24925 -1.042561,0.60767 -1.042561,1.77397 v 0.89695 l 1.195173,0.003 c 1.335304,0.003 1.702595,0.14871 1.609066,0.63822 -0.05466,0.28609 -0.256334,0.34019 -1.433923,0.38463 l -1.370316,0.0517 v 3.43374 c 0,1.88857 -0.07771,3.63813 -0.17268,3.88794 -0.180356,0.47437 -0.664525,0.61432 -0.805599,0.23285 z m 19.453037,0.063 c -0.916033,-0.23676 -1.681202,-0.77615 -2.032172,-1.43254 -0.272549,-0.50973 -0.329886,-1.01134 -0.329886,-2.88606 0,-2.49199 0.127289,-2.94256 1.050848,-3.71968 0.556541,-0.4683 1.869241,-0.83435 2.986043,-0.83266 1.584917,0.003 3.013501,0.86491 3.406915,2.05697 0.314313,0.95238 0.310386,2.34806 -0.0072,2.54913 -0.146077,0.0925 -1.640043,0.16939 -3.319924,0.17089 l -3.054334,0.003 v 0.78846 c 0,1.6822 0.765473,2.30275 2.833002,2.29663 1.350258,-0.004 1.946411,-0.20196 3.037497,-1.00862 0.537872,-0.39766 0.857881,-0.28819 0.857881,0.29346 0,0.50007 -0.586345,1.06448 -1.504315,1.44803 -0.794815,0.33209 -3.080882,0.49129 -3.924383,0.27328 z m 4.188598,-5.72908 c -8.7e-4,-0.51127 -0.584985,-1.47121 -1.0451,-1.71746 -0.624011,-0.33396 -1.921613,-0.42099 -2.763293,-0.18534 -0.954351,0.26721 -1.679887,1.03753 -1.679887,1.7836 v 0.5176 h 2.744471 c 2.728272,0 2.744467,-0.003 2.743809,-0.3984 z m 5.426917,5.69143 c -0.375324,-0.0882 -0.914353,-0.32549 -1.197845,-0.52736 -0.905835,-0.64501 -1.041282,-1.14014 -1.041282,-3.8064 0,-2.83555 0.189336,-3.33242 1.514239,-3.97379 1.604795,-0.77687 4.256921,-0.57181 5.169622,0.39972 0.819644,0.87247 1.258538,3.10058 0.717357,3.64176 -0.148883,0.14888 -1.129266,0.21248 -3.275659,0.21248 h -3.063183 v 0.89695 c 0,0.49332 0.08204,1.05025 0.18231,1.23761 0.336076,0.62796 1.228312,0.94659 2.650692,0.94659 1.357614,0 1.941856,-0.19466 3.055547,-1.01803 0.589392,-0.43575 0.946015,-0.20849 0.770459,0.49099 -0.309225,1.23205 -3.225562,2.02971 -5.482257,1.49948 z m 4.31219,-5.56432 c 0,-0.1492 -0.116518,-0.55014 -0.258929,-0.89098 -0.84334,-2.0184 -5.230012,-1.54308 -5.230012,0.56669 v 0.59558 h 2.74447 c 2.34706,0 2.744471,-0.0393 2.744471,-0.27129 z m 15.210582,5.60616 c -0.973046,-0.20696 -1.808668,-0.76649 -2.15877,-1.44552 -0.268531,-0.52082 -0.308726,-0.99368 -0.265594,-3.12456 0.04473,-2.20992 0.09464,-2.57069 0.416375,-3.01007 0.653345,-0.89221 1.551797,-1.20744 3.441296,-1.20744 1.890347,0 2.788765,0.3155 3.441295,1.20852 0.331322,0.45343 0.365552,0.75187 0.365552,3.18713 0,2.49825 -0.02781,2.72583 -0.396107,3.24217 -0.21786,0.30542 -0.732546,0.68992 -1.143747,0.85446 -0.855864,0.34245 -2.763043,0.49465 -3.7003,0.29531 z m 3.632653,-1.60316 c 0.446431,-0.4197 0.456593,-0.48176 0.456593,-2.78874 0,-2.10209 -0.03761,-2.39708 -0.344785,-2.70426 -0.762614,-0.76261 -3.370678,-0.93117 -4.361607,-0.28189 -0.647697,0.42439 -0.783279,0.96108 -0.776275,3.07282 0.0096,2.89381 0.342526,3.25302 2.945588,3.17808 1.439965,-0.0414 1.675606,-0.0954 2.080486,-0.47601 z m 5.616762,1.50359 c -1.721228,-0.56083 -2.150104,-1.4199 -2.150104,-4.30679 0,-1.82135 0.05169,-2.1941 0.398391,-2.87269 0.453693,-0.88802 1.21065,-1.3561 2.472751,-1.52909 1.149931,-0.15761 2.309711,0.0537 3.04926,0.55557 l 0.63092,0.42815 v -2.18627 c 0,-2.27641 0.15483,-2.76606 0.79679,-2.51971 0.23629,0.0907 0.26429,0.88597 0.22359,6.34979 -0.0455,6.11259 -0.0541,6.24615 -0.40067,6.24615 -0.25479,0 -0.36985,-0.13673 -0.4102,-0.48746 l -0.0561,-0.48747 -0.79202,0.46415 c -0.970959,0.56903 -2.613905,0.71996 -3.762631,0.34567 z m 3.678649,-1.41853 0.722569,-0.50075 v -2.35182 -2.35182 l -0.66399,-0.4122 c -0.508999,-0.31598 -0.984049,-0.42705 -2.035219,-0.4758 -1.365052,-0.0633 -1.374045,-0.0608 -1.991958,0.55711 l -0.620716,0.62072 v 2.12284 c 0,1.81101 0.04871,2.183 0.331622,2.53238 0.802935,0.99159 3.007312,1.12585 4.257692,0.25934 z m 6.159066,1.43131 c -1.05535,-0.29792 -1.84288,-1.03186 -2.08934,-1.94713 -0.10364,-0.38489 -0.16213,-1.63809 -0.12997,-2.78487 0.0671,-2.39163 0.23514,-2.76662 1.57918,-3.52316 0.6604,-0.37172 1.01367,-0.43999 2.28613,-0.4418 1.22574,-0.002 1.64425,0.0721 2.25518,0.39779 0.89872,0.47913 1.45073,1.44343 1.58807,2.77417 0.15319,1.48419 0.0765,1.51636 -3.61508,1.51636 h -3.11072 l 0.10275,0.99545 c 0.13247,1.28354 0.56333,1.75665 1.84142,2.02197 1.37824,0.28613 2.55022,0.0756 3.63226,-0.6526 0.89954,-0.60535 1.37857,-0.66465 1.37857,-0.17068 0,0.45292 -0.85989,1.29847 -1.63717,1.60988 -1.00933,0.40438 -3.01709,0.50503 -4.08128,0.20462 z m 4.37279,-5.73501 c -0.27886,-1.20193 -1.01511,-1.79173 -2.41725,-1.93645 -1.32466,-0.13671 -2.51726,0.3843 -2.88293,1.25947 -0.49904,1.19439 -0.56651,1.16391 2.57676,1.16391 h 2.83639 z m 15.12752,5.81712 c -2.49848,-0.51867 -3.09234,-3.46131 -0.9517,-4.7158 1.17722,-0.6899 2.8558,-0.75264 4.38958,-0.16407 0.27,0.10361 0.30946,0.002 0.30946,-0.79715 0,-0.50374 -0.0861,-1.07675 -0.19131,-1.27337 -0.44329,-0.82829 -2.68648,-1.14534 -3.88113,-0.54855 -0.46768,0.23364 -0.6595,0.4706 -0.78187,0.96589 -0.17634,0.71377 -0.53966,0.97091 -0.92266,0.65304 -0.66885,-0.55509 0.0505,-2.11224 1.22127,-2.64372 1.01533,-0.46091 3.49402,-0.48224 4.36606,-0.0376 1.21695,0.62054 1.33415,0.9712 1.3949,4.17322 l 0.0543,2.86475 0.54979,0.46152 c 0.60722,0.50969 0.58731,1.04351 -0.0389,1.04351 -0.51906,0 -1.59343,-0.47648 -1.59343,-0.70668 0,-0.10646 -0.33863,0.004 -0.75252,0.24582 -0.8298,0.4845 -2.17055,0.68705 -3.17188,0.47917 z m 3.02843,-1.49528 c 0.67885,-0.44923 0.71891,-0.52436 0.71891,-1.3481 0,-0.47979 -0.0795,-0.92151 -0.17678,-0.98161 -0.3018,-0.18652 -2.57797,-0.31986 -3.2638,-0.19119 -0.90139,0.1691 -1.34011,0.6574 -1.34011,1.49155 0,1.09337 0.87423,1.65653 2.42396,1.56147 0.63182,-0.0388 1.14352,-0.205 1.63782,-0.53212 z m 4.33984,1.4292 c -0.0474,-0.12366 -0.0648,-2.12893 -0.0387,-4.45618 0.0356,-3.1666 0.10262,-4.24967 0.26635,-4.30417 0.12033,-0.0401 0.31119,0.12996 0.42412,0.37782 l 0.20534,0.45066 0.51904,-0.43675 c 0.65207,-0.54868 1.3308,-0.55484 2.12005,-0.0193 l 0.61521,0.4175 0.51236,-0.37323 c 0.36669,-0.26712 0.7766,-0.37323 1.44169,-0.37323 0.77931,0 1.00858,0.0792 1.42028,0.49056 l 0.49094,0.49056 0.0531,3.67041 c 0.0425,2.93736 0.003,3.73804 -0.19572,4.00904 -0.15356,0.20901 -0.36025,0.29585 -0.53998,0.22688 -0.25562,-0.0981 -0.2912,-0.50953 -0.2912,-3.36653 0,-1.91034 -0.0804,-3.48557 -0.19476,-3.81347 -0.25254,-0.72443 -0.8449,-0.88283 -1.61667,-0.43231 l -0.57892,0.33795 -0.0479,3.4686 c -0.0385,2.78909 -0.0988,3.51081 -0.3076,3.68409 -0.14282,0.11852 -0.37551,0.17104 -0.5171,0.11671 -0.21075,-0.0809 -0.26736,-0.74177 -0.31212,-3.64367 -0.0466,-3.01932 -0.0983,-3.58843 -0.34872,-3.83854 -0.41531,-0.41473 -1.15436,-0.3643 -1.66293,0.11348 -0.42907,0.40308 -0.43337,0.43918 -0.43337,3.63744 0,1.77667 -0.0484,3.35634 -0.10747,3.51039 -0.12838,0.33454 -0.75293,0.37396 -0.87523,0.0552 z m -87.12882,-0.2135 c -0.229929,-0.59918 0.06449,-0.80108 1.168202,-0.80108 h 1.067933 v -3.27566 -3.27566 h -1.067933 c -0.789931,0 -1.09469,-0.0697 -1.170716,-0.26785 -0.218076,-0.56829 0.275358,-0.79453 1.732937,-0.79453 1.311941,0 1.41085,0.0268 1.596022,0.43326 l 0.197404,0.43326 0.588953,-0.44922 c 1.215809,-0.92734 2.852575,-0.65332 3.360629,0.56262 0.3229,0.77281 0.318712,1.22288 -0.01395,1.49896 -0.354346,0.29408 -0.733625,-0.0176 -0.890491,-0.73182 -0.235396,-1.07175 -1.466768,-1.1073 -2.501842,-0.0722 l -0.591576,0.59158 v 2.66589 2.66588 l 1.283704,0.052 c 1.23737,0.0501 1.283704,0.068 1.283704,0.49468 v 0.44266 l -2.969707,0.0486 c -2.52765,0.0414 -2.985123,0.008 -3.073274,-0.22132 z m 31.311841,0.0614 c -0.320259,-0.0924 -0.892182,-0.47782 -1.270942,-0.85658 -0.87333,-0.87333 -0.937426,-1.28368 -0.861549,-5.5158 0.05757,-3.21095 0.06901,-3.29718 0.529959,-3.99312 0.259116,-0.39122 0.777024,-0.85935 1.150906,-1.0403 0.835101,-0.40416 2.730043,-0.53983 3.740323,-0.26778 1.466957,0.39501 2.569564,1.90398 2.268305,3.10429 -0.202336,0.80617 -0.776826,0.51771 -1.225144,-0.61517 -0.455362,-1.15068 -1.141275,-1.59285 -2.471555,-1.59329 -1.329767,-4.3e-4 -2.02792,0.37992 -2.450383,1.33497 -0.327535,0.74045 -0.35555,1.1058 -0.302548,3.94562 0.05079,2.72115 0.102287,3.19435 0.394566,3.62559 0.491756,0.72554 1.179032,1.00914 2.443791,1.00839 1.516987,-6.6e-4 2.166821,-0.40193 2.497852,-1.54151 0.182589,-0.62856 0.34335,-0.86261 0.620895,-0.90393 0.719579,-0.10714 0.731712,1.28766 0.0199,2.28731 -0.574379,0.80664 -1.676311,1.22351 -3.185756,1.2052 -0.723984,-0.009 -1.578362,-0.0915 -1.898619,-0.18389 z m 38.466379,-0.13296 c -0.77719,-0.35303 -1.61649,-1.23247 -1.7736,-1.85843 -0.0543,-0.21633 -0.0742,-2.06915 -0.0442,-4.11737 l 0.0545,-3.72405 0.49607,-0.64986 c 0.78319,-1.02597 1.38851,-1.26393 3.22225,-1.26675 1.77055,-0.003 2.71015,0.32616 3.32024,1.16216 0.44281,0.60676 0.68915,1.73258 0.4691,2.14375 -0.31132,0.5817 -0.68829,0.35044 -1.14488,-0.70236 -0.52712,-1.21545 -0.87076,-1.46431 -2.18676,-1.58364 -1.25535,-0.11383 -2.17984,0.24935 -2.66645,1.04747 -0.32441,0.53211 -0.35734,0.88794 -0.35734,3.86177 0,2.9372 0.0357,3.33423 0.34564,3.84252 0.47041,0.77152 1.21202,1.11524 2.40622,1.11524 1.63774,0 2.23551,-0.41562 2.6715,-1.85744 0.35158,-1.16268 1.22787,-0.52741 0.95308,0.69094 -0.18606,0.82497 -0.75558,1.46499 -1.6856,1.89421 -0.96669,0.44616 -3.0995,0.44712 -4.07977,0.002 z"
       id="path125" /></g></svg>
